<svg width="15" height="17" viewBox="0 0 15 17" fill="none" xmlns="http://www.w3.org/2000/svg">
<g clip-path="url(#clip0_476_3638)">
<path d="M9.96875 8.48438C9.96875 9.58894 9.07331 10.4844 7.96875 10.4844C6.86419 10.4844 5.96875 9.58894 5.96875 8.48438C5.96875 7.37981 6.86419 6.48438 7.96875 6.48438C9.07331 6.48438 9.96875 7.37981 9.96875 8.48438Z" fill="#6A7C8D"/>
<path d="M9.96875 14.5C9.96875 15.6046 9.07331 16.5 7.96875 16.5C6.86419 16.5 5.96875 15.6046 5.96875 14.5C5.96875 13.3954 6.86419 12.5 7.96875 12.5C9.07331 12.5 9.96875 13.3954 9.96875 14.5Z" fill="#6A7C8D"/>
<path d="M9.96875 2.5C9.96875 3.60456 9.07331 4.5 7.96875 4.5C6.86419 4.5 5.96875 3.60456 5.96875 2.5C5.96875 1.39544 6.86419 0.5 7.96875 0.5C9.07331 0.5 9.96875 1.39544 9.96875 2.5Z" fill="#6A7C8D"/>
</g>
<defs>
<clipPath id="clip0_476_3638">
<rect width="16" height="16" fill="white" transform="translate(0 0.5)"/>
</clipPath>
</defs>
</svg>
